<svg xmlns="http://www.w3.org/2000/svg" viewBox="0 0 126.97 87.63"><defs><style>.a{fill:#fff;}</style></defs><title>ashtrest white transparent</title><path class="a" d="M157.61,255.08c-8.31.62-17.8,0-25.88,1.93-2.69.65-7.5,4.74-10.09,4.39-8.83-1.19-5-7-.52-9.88,5.82-3.75,19.3-3.47,26.06-4.69,2.41-.43,7.65-2.49,10.06-1.81C161.9,246.34,166.39,255.08,157.61,255.08Z" transform="translate(-106.32 -181.03)"/><rect class="a" y="47.03" width="48.32" height="10.13" rx="5.06"/><rect class="a" x="9.74" y="27.61" width="44.03" height="10.13" rx="5.06"/><rect class="a" x="26.42" y="20" width="11.55" height="5.06" rx="2.27"/><rect class="a" x="45.76" y="79.57" width="14.9" height="5.06" rx="2.27"/><path class="a" d="M162.42,188.14c-8.3-.57-17.79,0-25.87-1.77-2.69-.59-8.75-2.11-11.34-1.79-8.83,1.1-5.07,5.28-.63,7.89,5.83,3.44,20.66,2.13,27.42,3.24,2.41.4,7.64,2.29,10.06,1.66C166.71,196.16,171.21,188.14,162.42,188.14Z" transform="translate(-106.32 -181.03)"/><polygon class="a" points="71.95 43.31 86.39 43.31 79.19 24.09 71.95 43.31"/><path class="a" d="M217.48,229.77H232.9a32.25,32.25,0,0,0,.39-4.93H221a2.26,2.26,0,0,1-2.26-2.26v-1.41A2.26,2.26,0,0,1,221,218.9h11.69a33.75,33.75,0,0,0-1-4H219.15a2.27,2.27,0,0,1-2.27-2.27v-1.41a2.27,2.27,0,0,1,2.27-2.26h10.08c-.52-1-1.08-2-1.7-2.91H214.24a2.27,2.27,0,0,1-2.27-2.26v-.53a2.27,2.27,0,0,1,2.27-2.27h9.41c-10.68-12-29.22-20-50.32-20-33.11,0-33.11,87.63,0,87.63a81.14,81.14,0,0,0,15.72-1.53,5,5,0,0,1-.21-1.39c0-4.89,6.68-8.85,14.92-8.85a22.64,22.64,0,0,1,8.18,1.46c9.71-6,16.78-14.18,19.77-23.52H217.48a2.27,2.27,0,0,1-2.27-2.27V232A2.27,2.27,0,0,1,217.48,229.77ZM213,248.33c-.9.9-2.43,1.35-4.58,1.35h-12c-2.16,0-3.69-.45-4.61-1.35a4.72,4.72,0,0,1-1.37-3.53,4.65,4.65,0,0,1,1.37-3.48c.92-.9,2.45-1.35,4.61-1.35h2.18l-2.14-5.92H174.68L172.5,240h2.18c2.16,0,3.69.45,4.61,1.35a4.75,4.75,0,0,1,1.37,3.53,4.69,4.69,0,0,1-1.37,3.48c-.92.9-2.45,1.35-4.61,1.35h-12c-2.16,0-3.69-.45-4.61-1.35a4.75,4.75,0,0,1-1.37-3.53,4.69,4.69,0,0,1,1.44-3.55c1-.92,2.54-1.34,4.76-1.28l14-38h-5.85c-2.15,0-3.69-.45-4.6-1.35a5.2,5.2,0,0,1,0-7.06c.91-.9,2.45-1.35,4.6-1.35l19.34.05L208.2,240c2.1,0,3.48.25,4.15.76a5,5,0,0,1,2,4.12A4.68,4.68,0,0,1,213,248.33Z" transform="translate(-106.32 -181.03)"/></svg>